<svg xmlns="http://www.w3.org/2000/svg" version="1.1" xmlns:xlink="http://www.w3.org/1999/xlink" xmlns:svgjs="http://svgjs.dev/svgjs" width="2000" height="2000" viewBox="0 0 2000 2000"><g transform="matrix(1,0,0,1,0,0.0006899765378420852)"><svg viewBox="0 0 280 280" data-background-color="#ffffff" preserveAspectRatio="xMidYMid meet" height="2000" width="2000" xmlns="http://www.w3.org/2000/svg" xmlns:xlink="http://www.w3.org/1999/xlink"><g id="tight-bounds" transform="matrix(1,0,0,1,0,0.00009659671528083891)"><svg viewBox="0 0 280 280" height="280" width="280"><g><svg viewBox="0 0 280 280" height="280" width="280"><g><svg viewBox="0 0 280 280" height="280" width="280"><g id="textblocktransform"><svg viewBox="0 0 280 280" height="280" width="280" id="textblock"><g><svg viewBox="0 0 280 280" height="280" width="280"><g transform="matrix(1,0,0,1,57.50420886156945,57.50420886156945)"><svg viewBox="0 0 164.9915822768611 164.9915822768611" height="164.9915822768611" width="164.9915822768611"><g id="icon-0"><circle r="82" cx="82.49579113843055" cy="82.49579113843055" fill="#000000" data-fill-palette-color="accent"></circle><svg xmlns="http://www.w3.org/2000/svg" xmlns:xlink="http://www.w3.org/1999/xlink" version="1.1" x="24.748737341529164" y="24.74873734152917" viewBox="5.288000000000001 20.704 89.42500000000001 58.592000000000006" enable-background="new 0 0 100 100" xml:space="preserve" height="115.49410759380275" width="115.49410759380275" class="icon-xg-0" data-fill-palette-color="quaternary" id="xg-0"><path d="M91.099 37.333l-5.029-1.754h-0.148c-2.079 0-3.771 1.692-3.771 3.771v5.917c0 2.079 1.691 3.771 3.771 3.771h0.148l5.029-1.754c2.007-0.082 3.614-1.741 3.614-3.768v-2.417C94.713 39.074 93.105 37.416 91.099 37.333zM92.963 43.518c0 1.114-0.907 2.021-2.021 2.021h-0.148l-5.007 1.745c-1.052-0.069-1.886-0.947-1.886-2.017v-5.917c0-1.069 0.834-1.947 1.886-2.017l5.007 1.745h0.148c1.114 0 2.021 0.907 2.021 2.021V43.518z" fill="#ffffff" data-fill-palette-color="quaternary"></path><path d="M77.732 32.079h-1.129v-3.229c0-2.079-1.691-3.771-3.771-3.771h-4.085v-1.771c0-1.436-1.168-2.604-2.604-2.604s-2.604 1.168-2.604 2.604v3.723l-4.095 3.913H40.555l-4.095-3.913v-3.723c0-1.436-1.169-2.604-2.604-2.604-1.436 0-2.604 1.168-2.604 2.604v1.771h-4.085c-2.08 0-3.771 1.691-3.771 3.771v3.229h-1.129c-2.079 0-3.771 1.692-3.771 3.771v12.917c0 2.079 1.692 3.771 3.771 3.771h1.129v3.229c0 2.079 1.691 3.771 3.771 3.771h4.085v1.771c0 1.436 1.168 2.604 2.604 2.604 1.435 0 2.604-1.168 2.604-2.604v-3.724l4.095-3.912h18.891l4.095 3.912v3.724c0 1.436 1.168 2.604 2.604 2.604s2.604-1.168 2.604-2.604v-1.771h4.085c2.08 0 3.771-1.692 3.771-3.771v-3.229h1.129c2.079 0 3.771-1.692 3.771-3.771V35.851C81.504 33.771 79.812 32.079 77.732 32.079zM22.268 50.789c-1.114 0-2.021-0.907-2.021-2.021V35.851c0-1.114 0.907-2.021 2.021-2.021h1.129v16.96H22.268zM31.253 57.789h-4.085c-1.115 0-2.021-0.907-2.021-2.021V28.851c0-1.114 0.906-2.021 2.021-2.021h4.085V57.789zM34.71 61.311c0 0.471-0.383 0.854-0.854 0.854s-0.854-0.383-0.854-0.854V23.309c0-0.471 0.383-0.854 0.854-0.854s0.854 0.383 0.854 0.854V61.311zM41.074 32.693h17.852v19.231H41.074V32.693zM36.46 29.452l2.864 2.736V52.43l-2.864 2.737V29.452zM63.54 55.167l-2.864-2.737V32.188l2.864-2.736V55.167zM66.997 61.311c0 0.471-0.383 0.854-0.854 0.854s-0.854-0.383-0.854-0.854V23.309c0-0.471 0.383-0.854 0.854-0.854s0.854 0.383 0.854 0.854V61.311zM74.854 55.768c0 1.114-0.906 2.021-2.021 2.021h-4.085V26.83h4.085c1.115 0 2.021 0.906 2.021 2.021V55.768zM79.754 48.768c0 1.114-0.907 2.021-2.021 2.021h-1.129v-16.96h1.129c1.114 0 2.021 0.907 2.021 2.021V48.768z" fill="#ffffff" data-fill-palette-color="quaternary"></path><path d="M14.079 35.579h-0.148l-5.029 1.754c-2.007 0.083-3.614 1.741-3.614 3.768v2.417c0 0.413 0.067 0.81 0.191 1.182 0.32 28.539 5.415 34.102 5.639 34.331l0.258 0.265h6.174l-0.411-1.166c-3.576-10.15-3.806-21.903-3.489-29.188l0.282 0.099h0.148c2.079 0 3.771-1.692 3.771-3.771v-5.917C17.85 37.271 16.158 35.579 14.079 35.579zM15.093 77.545h-2.911c-0.939-1.436-4.881-8.997-4.968-34.829h5.14C11.9 46.896 10.516 63.454 15.093 77.545zM16.1 45.268c0 1.069-0.834 1.947-1.886 2.017l-0.471-0.164c0.191-3.143 0.452-5.098 0.461-5.159l0.138-0.995H7.044c0.07-1.052 0.946-1.887 2.015-1.887h0.148l5.007-1.745c1.052 0.069 1.886 0.947 1.886 2.017V45.268z" fill="#ffffff" data-fill-palette-color="quaternary"></path></svg></g></svg></g><g id="text-0"><path d="M28.935 107.782l4.636-13.542 2.781 0.952-5.922 17.301-2.575-0.881-4.593-9.31c-1.428-2.883-2.471-4.794-3.13-5.733v0c-1.362-1.971-2.951-3.268-4.768-3.89v0c-1.41-0.483-2.671-0.438-3.783 0.133-1.112 0.571-1.927 1.612-2.444 3.122v0c-0.377 1.103-0.555 2.193-0.532 3.272 0.027 1.087 0.31 2.406 0.851 3.955v0l-2.561 0.887c-1.194-3.117-1.302-6.101-0.327-8.952v0c0.841-2.456 2.132-4.173 3.874-5.152 1.744-0.985 3.687-1.11 5.83-0.377v0c1.692 0.579 3.198 1.627 4.52 3.144 1.322 1.516 2.773 3.963 4.354 7.338v0l3.648 7.685z" fill="#000000" data-fill-palette-color="primary"></path><path d="M45.362 64.139l2.429-3.329 2.319 1.692-2.43 3.33 5.16 3.764-1.78 2.44-5.16-3.765-7.974 10.929-2.231-1.628-7.422-21.746 1.979-2.712zM37.463 74.964l6.119-8.385-7.479-5.457c-1.455-1.062-3.068-2.317-4.839-3.765v0l-0.1 0.136c0.626 1.243 1.101 2.3 1.426 3.168v0z" fill="#000000" data-fill-palette-color="primary"></path><path d="M64.227 57.435l-9.361-28.165 2.469-1.986 9.346 28.177z" fill="#000000" data-fill-palette-color="primary"></path><path d="M89.939 12.867l-13.767 6.319-1.218-2.654 16.809-7.716 1.057 2.302 0.208 27.72-3.186 1.463z" fill="#000000" data-fill-palette-color="primary"></path><path d="M132.737 16.112l-11.382 1.729 1.784 11.745-3.201 0.487-4.177-27.498 15.32-2.327 0.431 2.839-12.118 1.84 1.53 10.076 11.382-1.729z" fill="#000000" data-fill-palette-color="primary"></path><path d="M156.025 3.764c-0.378 0.337-0.84 0.484-1.388 0.443-0.548-0.042-0.977-0.257-1.286-0.646-0.31-0.382-0.438-0.917-0.386-1.603 0.052-0.687 0.26-1.196 0.624-1.527 0.363-0.324 0.819-0.466 1.367-0.424 0.548 0.042 0.983 0.257 1.305 0.647 0.323 0.383 0.458 0.915 0.407 1.595-0.052 0.68-0.266 1.185-0.643 1.515zM152.783 7.622l3.16 0.24-1.58 20.78-3.16-0.24z" fill="#000000" data-fill-palette-color="primary"></path><path d="M181.172 15.914l-3.65 11.701c-0.373 1.195-0.381 2.201-0.026 3.02 0.353 0.825 1.02 1.39 1.999 1.695 0.974 0.304 1.935 0.468 2.884 0.494v0l-0.718 2.304c-0.355 0.049-0.881 0.023-1.579-0.076-0.697-0.1-1.283-0.223-1.757-0.371v0c-3.844-1.199-5.134-3.821-3.872-7.867v0l3.694-11.844-2.844-0.887 0.452-1.451 3.235-0.365 2.599-3.861 1.754 0.547-1.44 4.618 5.765 1.799-0.731 2.342z" fill="#000000" data-fill-palette-color="primary"></path><path d="M226.036 28.264l2.742 1.721-14.786 23.557-2.743-1.722 6.955-11.08-12.401-7.784-6.955 11.08-2.742-1.722 14.786-23.556 2.743 1.722-6.29 10.02 12.401 7.784z" fill="#000000" data-fill-palette-color="primary"></path><path d="M231.948 61.679l10.582-8.589 2.009 2.476-10.504 8.526c-1.321 1.073-2.06 2.175-2.216 3.307-0.15 1.128 0.29 2.328 1.321 3.598v0c1.377 1.697 2.846 2.556 4.407 2.576 1.556 0.025 3.38-0.811 5.473-2.509v0l8.499-6.899 1.997 2.461-16.181 13.133-1.634-2.013 1.873-2.122-0.106-0.131c-1.196 0.135-2.368-0.07-3.517-0.613-1.145-0.538-2.182-1.38-3.113-2.527v0c-1.619-1.995-2.348-3.86-2.186-5.594 0.162-1.734 1.26-3.428 3.296-5.08z" fill="#000000" data-fill-palette-color="primary"></path><path d="M263.365 91.812c2.472 0.588 4.225 2.201 5.261 4.839 1.036 2.638 0.953 5.001-0.249 7.087-1.199 2.093-3.392 3.764-6.579 5.016-3.187 1.251-5.938 1.509-8.254 0.775-2.316-0.734-3.984-2.402-5.005-5.004-1.021-2.601-0.853-4.965 0.503-7.091v0l-0.083-0.213-2.744 0.352-0.827-2.108 27.545-10.813 1.157 2.95-6.694 2.628c-1.572 0.617-2.934 1.098-4.086 1.443v0zM254.438 106.585c1.655 0.375 3.74 0.068 6.255-0.919 2.509-0.985 4.207-2.16 5.093-3.525 0.884-1.372 0.947-3.025 0.187-4.961-0.76-1.936-1.882-3.117-3.365-3.545-1.486-0.434-3.598-0.114-6.335 0.961-2.731 1.072-4.507 2.292-5.329 3.66-0.816 1.366-0.83 3.05-0.044 5.054v0c0.707 1.8 1.886 2.892 3.538 3.275z" fill="#000000" data-fill-palette-color="primary"></path><path d="M12.472 143.458c0-1.873 1.518-3.391 3.391-3.391 1.873 0 3.391 1.518 3.391 3.391 0 1.873-1.518 3.391-3.391 3.392-1.873 0-3.391-1.518-3.391-3.392z" fill="#000000" data-fill-palette-color="primary"></path><path d="M262.791 143.458c0-1.873 1.518-3.391 3.391-3.391 1.873 0 3.391 1.518 3.392 3.391 0 1.873-1.518 3.391-3.392 3.392-1.873 0-3.391-1.518-3.391-3.392z" fill="#000000" data-fill-palette-color="primary"></path></g><g id="text-1"><path d="M14.493 184.517l4.999 14.383-2.956 1.027-6.384-18.371 2.739-0.952 9.947 4.777c3.081 1.481 5.209 2.4 6.384 2.756v0c2.437 0.759 4.619 0.803 6.545 0.133v0c1.501-0.522 2.529-1.387 3.083-2.596 0.554-1.209 0.553-2.614-0.003-4.216v0c-0.409-1.176-0.978-2.209-1.707-3.098-0.73-0.889-1.83-1.807-3.303-2.753v0l1.565-2.427c3.047 1.829 5.098 4.261 6.153 7.295v0c0.904 2.602 0.948 4.886 0.131 6.853-0.817 1.966-2.364 3.345-4.641 4.136v0c-1.801 0.626-3.751 0.736-5.848 0.329-2.104-0.405-4.924-1.5-8.46-3.285v0l-8.103-4.04z" fill="#000000" data-fill-palette-color="primary"></path><path d="M44.155 225.035l2.6 3.525-2.454 1.811-2.6-3.525-5.468 4.033-1.91-2.59 5.467-4.033-8.545-11.582 2.366-1.746 24.439-0.588 2.123 2.878zM35.692 213.565l6.552 8.881 7.929-5.85c1.545-1.14 3.333-2.376 5.362-3.709v0l-0.106-0.144c-1.461 0.239-2.682 0.386-3.661 0.442v0z" fill="#000000" data-fill-palette-color="primary"></path><path d="M50.792 246.27l27.077-16.241 2.631 2.102-27.093 16.229z" fill="#000000" data-fill-palette-color="primary"></path><path d="M102.922 247.078l-14.655-6.717 1.291-2.817 17.888 8.199-1.126 2.456-22.202 19.402-3.386-1.552z" fill="#000000" data-fill-palette-color="primary"></path><path d="M133.845 267.9l-12.117-1.845-1.902 12.491-3.398-0.517 4.454-29.254 16.291 2.48-0.46 3.025-12.894-1.963-1.631 10.714 12.118 1.844z" fill="#000000" data-fill-palette-color="primary"></path><path d="M153.543 253.324c-0.342 0.41-0.808 0.635-1.395 0.677-0.581 0.042-1.064-0.116-1.448-0.474-0.391-0.357-0.612-0.902-0.665-1.635-0.052-0.733 0.09-1.298 0.426-1.694 0.33-0.402 0.785-0.624 1.367-0.665 0.588-0.042 1.08 0.115 1.478 0.471 0.404 0.356 0.632 0.894 0.683 1.615 0.052 0.727-0.097 1.295-0.446 1.705zM150.743 257.886l3.358-0.241 1.583 22.115-3.359 0.24z" fill="#000000" data-fill-palette-color="primary"></path><path d="M175.338 255.582l3.776 12.483c0.385 1.274 0.98 2.166 1.785 2.677 0.803 0.504 1.724 0.599 2.763 0.285 1.04-0.314 1.987-0.739 2.842-1.274v0l0.742 2.453c-0.282 0.258-0.76 0.552-1.435 0.88-0.675 0.329-1.263 0.569-1.765 0.72v0c-4.101 1.24-6.805-0.301-8.112-4.623v0l-3.819-12.627-3.043 0.921-0.469-1.55 2.637-2.261-0.021-4.943 1.873-0.567 1.489 4.925 6.161-1.863 0.757 2.5z" fill="#000000" data-fill-palette-color="primary"></path><path d="M206.618 228.532l2.931-1.795 15.459 25.231-2.93 1.795-7.271-11.866-13.289 8.143 7.271 11.866-2.931 1.795-15.459-25.231 2.93-1.796 6.581 10.74 13.289-8.142z" fill="#000000" data-fill-palette-color="primary"></path><path d="M236.105 230.478l-11.183-9.234 2.164-2.62 11.098 9.165c1.399 1.155 2.702 1.694 3.907 1.617 1.216-0.078 2.378-0.789 3.487-2.132v0c1.48-1.792 2.065-3.504 1.754-5.135-0.301-1.632-1.555-3.358-3.761-5.179v0l-8.984-7.42 2.15-2.604 17.096 14.118-1.765 2.136-2.606-1.508-0.114 0.138c0.394 1.218 0.429 2.48 0.107 3.786-0.321 1.315-0.982 2.577-1.981 3.787v0c-1.737 2.104-3.53 3.255-5.379 3.456-1.844 0.195-3.841-0.595-5.99-2.371z" fill="#000000" data-fill-palette-color="primary"></path><path d="M248.227 190.283c-1.484-2.258-1.666-4.785-0.544-7.582 1.122-2.796 2.911-4.569 5.366-5.318 2.453-0.743 5.369-0.436 8.749 0.921 3.38 1.356 5.698 3.164 6.954 5.422 1.264 2.255 1.342 4.766 0.232 7.532-1.107 2.76-2.962 4.466-5.565 5.12v0l-0.092 0.23 2.379 1.726-0.895 2.231-29.214-11.721 1.254-3.126 7.098 2.848c1.666 0.668 3.072 1.289 4.219 1.864v0zM265.914 185.359c-1.009-1.504-2.844-2.789-5.506-3.857-2.667-1.07-4.841-1.396-6.521-0.979-1.686 0.415-2.941 1.649-3.765 3.702-0.821 2.047-0.814 3.78 0.022 5.2 0.836 1.42 2.704 2.712 5.605 3.876 2.901 1.164 5.164 1.515 6.791 1.054 1.635-0.464 2.879-1.76 3.732-3.886v0c0.764-1.905 0.645-3.608-0.358-5.11z" fill="#000000" data-fill-palette-color="primary"></path></g></svg></g></svg></g></svg></g></svg></g><defs></defs></svg><rect width="280" height="280" fill="none" stroke="none" visibility="hidden"></rect></g></svg></g></svg>